<svg xmlns="http://www.w3.org/2000/svg" width="32" height="32" id="plant"><path style="isolation:auto;mix-blend-mode:normal" fill="#60c5b8" d="M-524.107 1364.108a6.522 6.37 61.067 0 0-2.585 8.177 6.522 6.37 61.067 0 0 2.112-.747 6.522 6.37 61.067 0 0 2.586-8.177 6.522 6.37 61.067 0 0-2.113.747zm-8.788 3.741a6.05 6.112 0 0 1 6.007 5.423 6.05 6.112 0 0 1-2.093.384 6.05 6.112 0 0 1-6.007-5.422 6.05 6.112 0 0 1 2.093-.385zm10.11 6.467a4.062 4.018 0 0 0-4.032 3.565 4.062 4.018 0 0 0 1.404.253 4.062 4.018 0 0 0 4.033-3.565 4.062 4.018 0 0 0-1.405-.253z" color="#000" overflow="visible" transform="translate(542.988 -1362.339)"></path><path fill="#34485c" d="M9.64 20.995 10.866 32h10.417l1.226-11.005z"></path><path style="line-height:normal;text-indent:0;text-align:start;text-decoration-line:none;text-decoration-style:solid;text-decoration-color:#000;text-transform:none;block-progression:tb;isolation:auto;mix-blend-mode:normal" fill="#25b39e" fill-rule="evenodd" d="M-527.389 1372.438v8.4h1v-8.4h-1z" color="#000" font-family="sans-serif" font-weight="400" overflow="visible" transform="translate(542.988 -1362.339)"></path><path style="line-height:normal;text-indent:0;text-align:start;text-decoration-line:none;text-decoration-style:solid;text-decoration-color:#000;text-transform:none;block-progression:tb;isolation:auto;mix-blend-mode:normal" fill="#25b39e" fill-rule="evenodd" d="M-530.928 1370.305a.5.5 0 0 0-.228.943l4 2.125a.5.5 0 1 0 .468-.883l-4-2.125a.5.5 0 0 0-.24-.06z" color="#000" font-family="sans-serif" font-weight="400" overflow="visible" transform="translate(542.988 -1362.339)"></path><path style="line-height:normal;text-indent:0;text-align:start;text-decoration-line:none;text-decoration-style:solid;text-decoration-color:#000;text-transform:none;block-progression:tb;isolation:auto;mix-blend-mode:normal" fill="#25b39e" fill-rule="evenodd" d="M-523.828 1367.494a.5.5 0 0 0-.412.22l-3.115 4.491a.5.5 0 1 0 .82.57l3.117-4.49a.5.5 0 0 0-.41-.79zm-.533 8.248a.5.5 0 0 0-.223.072l-2.219 1.313a.5.5 0 0 0 .51.861l2.219-1.313a.5.5 0 0 0-.287-.933z" color="#000" font-family="sans-serif" font-weight="400" overflow="visible" transform="translate(542.988 -1362.339)"></path><path fill="#2b4255" d="M8.852 18h14.427c.159 0 .286.128.286.287v2.422a.286.286 0 0 1-.286.287H8.852a.286.286 0 0 1-.287-.287v-2.422c0-.16.128-.287.287-.287z"></path></svg>